/* XPM */
static char *pixmap_xpm[] = {
/* columns rows colors chars-per-pixel */
"128 64 4 1",
"  c black s Background",
". c #0095E0 s Off",
"o c #87D7FF s On",
"O c None",
/* pixels */
"OOOOOOOOOOOOOOOOOOOOOOOOOOOOOOOOOOOOOOOOOOOOOOOOOOOOOOOOOOOOOOOOoooooooooooooooooooooooooooooooooooooooooooooooooooooooooooooooo",
"OOOOOOOOOOOOOOOOOOOOOOOOOOOOOOOOOOOOOOOOOOOOOOOOOOOOOOOOOOOOOOOOo                                                              o",
"OO............................................................OOo                                                              o",
"OO.                                                          .OOo                                                              o",
"OO.                                                          .OOo                                                              o",
"OO.            ..  ...................  ...................  .OOo                                                              o",
"OO.  oooo      ..  .                 .  .                 .  .OOo                                                              o",
"OO.  ooooo     ..  .                 .  .                 .  .OOo                                                              o",
"OO.     oo     ..  .                 .  .                 .  .OOo                                                              o",
"OO.     ooooo  ..  .                 .  .                 .  .OOo                                                              o",
"OO.     ooooo  ..  .                 .  .                 .  .OOo                                                              o",
"OO.     oo     ..  .                 .  .                 .  .OOo                                                              o",
"OO.  ooooo     ..  .                 .  .                 .  .OOo                                                              o",
"OO.  oooo      ..  .                 .  .                 .  .OOo                                                              o",
"OO.            ..  .                 .  .                 .  .OOo                                                              o",
"OO.   ooo  oo  ..  .                 .  .                 .  .OOo                                                              o",
"OO.  ooooo oo  ..  .                 .  .                 .  .OOo                                                              o",
"OO.  oo ooooo  ..  .                 .  .                 .  .OOo                                                              o",
"OO.  oo oooo   ..  .                 .  .                 .  .OOo                                                              o",
"OO.  oo oo     ..  .                 .  .                 .  .OOo                                                              o",
"OO.  oo oo     ..  .                 .  .                 .  .OOo                                                              o",
"OO.  oooooooo  ..  .                 .  .                 .  .OOo                                                              o",
"OO.   ooooooo  ..  .                 .  .                 .  .OOo                                                              o",
"OO.            ..  .                 .  .                 .  .OOo                                                              o",
"OO.   oooooo   ..  .                 .  .                 .  .OOo                                                              o",
"OO.  oooooooo  ..  .                 .  .                 .  .OOo                                                              o",
"OO.  oo    oo  ..  .                 .  .                 .  .OOo                                                              o",
"OO.  oo    oo  ..  .                 .  .                 .  .OOo                                                              o",
"OO.  oo    oo  ..  .                 .  .                 .  .OOo                                                              o",
"OO.  oo    oo  ..  .                 .  .                 .  .OOo                                                              o",
"OO.  oooooooo  ..  .                 .  .                 .  .OOo                                                              o",
"OO.   oooooo   ..  .                 .  .                 .  .OOo                                                              o",
"OO.            ..  .                 .  .                 .  .OOo                                                              o",
"OO.   ooooooo  ..  .                 .  .                 .  .OOo                                                              o",
"OO.  oooooooo  ..  .                 .  .                 .  .OOo                                                              o",
"OO.  oo        ..  .                 .  .                 .  .OOo                                                              o",
"OO.  oooooooo  ..  .                 .  .                 .  .OOo                                                              o",
"OO.  oooooooo  ..  .                 .  .                 .  .OOo                                                              o",
"OO.  oo        ..  .                 .  .                 .  .OOo                                                              o",
"OO.  oooooooo  ..  .                 .  .                 .  .OOo                                                              o",
"OO.   ooooooo  ..  .                 .  .                 .  .OOo                                                              o",
"OO.            ..  .                 .  .                 .  .OOo                                                              o",
"OO.   oooo oo  ..  .                 .  .                 .  .OOo                                                              o",
"OO.  ooooo oo  ..  .                 .  .                 .  .OOo                                                              o",
"OO.  oo oo oo  ..  .                 .  .                 .  .OOo                                                              o",
"OO.  oo oo oo  ..  .                 .  .                 .  .OOo                                                              o",
"OO.  oo oo oo  ..  .                 .  .                 .  .OOo                                                              o",
"OO.  oo oo oo  ..  .                 .  .                 .  .OOo                                                              o",
"OO.  oooooooo  ..  .                 .  .                 .  .OOo                                                              o",
"OO.   oooooo   ..  .                 .  .                 .  .OOo                                                              o",
"OO.            ..  .                 .  .                 .  .OOo                                                              o",
"OO.   ooooooo  ..  .                 .  .                 .  .OOo                                                              o",
"OO.  oooooooo  ..  .                 .  .                 .  .OOo                                                              o",
"OO.  oo        ..  .                 .  .                 .  .OOo                                                              o",
"OO.  oooooooo  ..  .                 .  .                 .  .OOo                                                              o",
"OO.  oooooooo  ..  .                 .  .                 .  .OOo                                                              o",
"OO.  oo        ..  .                 .  .                 .  .OOo                                                              o",
"OO.  oooooooo  ..  .                 .  .                 .  .OOo                                                              o",
"OO.   ooooooo  ..  ...................  ...................  .OOo                                                              o",
"OO.                                                          .OOo                                                              o",
"OO.                                                          .OOo                                                              o",
"OO............................................................OOo                                                              o",
"OOOOOOOOOOOOOOOOOOOOOOOOOOOOOOOOOOOOOOOOOOOOOOOOOOOOOOOOOOOOOOOOo                                                              o",
"OOOOOOOOOOOOOOOOOOOOOOOOOOOOOOOOOOOOOOOOOOOOOOOOOOOOOOOOOOOOOOOOoooooooooooooooooooooooooooooooooooooooooooooooooooooooooooooooo"
};
